<svg width="400" height="400" viewBox="0 0 400 400" fill="none" xmlns="http://www.w3.org/2000/svg">
<g clip-path="url(#clip0_21_2)">
<rect width="400" height="400" rx="56" fill="#333333"/>
<path fill-rule="evenodd" clip-rule="evenodd" d="M197.514 94.2628C201.793 96.8325 200.411 107.163 194.426 117.281C188.441 127.401 180.111 133.558 175.837 130.987C171.564 128.417 172.939 118.087 178.925 107.969C184.91 97.8496 193.234 91.6876 197.514 94.2628Z" fill="#333333"/>
<path fill-rule="evenodd" clip-rule="evenodd" d="M262.157 133.516C266.212 135.9 264.902 145.459 259.233 154.832C253.564 164.205 245.671 169.901 241.622 167.521C237.574 165.141 238.877 155.578 244.547 146.205C250.215 136.831 258.104 131.137 262.157 133.516Z" fill="#333333"/>
<path fill-rule="evenodd" clip-rule="evenodd" d="M196.621 94.2428C200.741 96.7248 199.41 106.703 193.647 116.476C187.883 126.25 179.861 132.197 175.745 129.714C171.63 127.231 172.955 117.254 178.719 107.481C184.482 97.7073 192.499 91.7555 196.621 94.2428ZM262.119 132.02C266.24 134.508 264.909 144.48 259.146 154.259C253.383 164.039 245.36 169.981 241.244 167.498C237.129 165.015 238.454 155.038 244.217 145.259C249.979 135.48 257.998 129.538 262.119 132.02Z" fill="#333333"/>
<path fill-rule="evenodd" clip-rule="evenodd" d="M357.679 168.993C373.872 256.556 316.31 340.871 229.18 357.156C142.05 373.441 58.1676 315.584 41.9705 228C28.832 156.953 64.256 88.0704 124.604 55.8996C138.648 48.4132 154.041 42.9149 170.486 39.84C257.613 23.5617 341.487 81.4337 357.679 168.993ZM204.833 119.688C210.595 109.986 211.926 100.08 207.806 97.6163C203.685 95.1471 195.671 101.056 189.909 110.758C184.147 120.461 182.823 130.365 186.937 132.83C191.051 135.295 199.071 129.391 204.833 119.688ZM270.314 157.197C276.075 147.489 277.406 137.589 273.285 135.12C269.166 132.656 261.15 138.554 255.389 148.262C249.628 157.97 248.303 167.874 252.417 170.339C256.531 172.805 264.553 166.905 270.314 157.197Z" fill="white"/>
<path d="M122.73 54.2772L122.73 54.2788M122.73 54.2788C122.614 54.8136 97.1096 172.762 186.656 215.999C276.405 259.334 358.002 201.9 358.002 201.9M122.73 54.2788C62.1766 86.4487 26.6323 155.329 39.8154 226.374C56.0676 313.955 140.235 371.81 227.661 355.526C315.087 339.241 372.845 254.929 356.597 167.369C340.349 79.8121 256.191 21.9419 168.768 38.2197M122.73 54.2788C136.821 46.7926 152.267 41.2945 168.768 38.2197M182.119 218.178L117.871 327.704M250.399 234.957L236.948 347.799M132.444 175.981L50.2624 236.685M168.768 38.2197L168.779 38.2176C168.775 38.2184 168.772 38.219 168.768 38.2197ZM168.768 38.2197L168.758 38.2217C168.761 38.221 168.764 38.2204 168.768 38.2197ZM64.4715 54.4695C79.4881 37.6128 174.029 -37.312 294.768 26.1108C397.114 79.8721 399.183 183.924 399.183 183.924C399.183 183.924 429.358 193.633 442.455 200.887C459.574 210.368 456.897 224.417 437.789 239.066C414.601 256.842 383.815 268.448 383.815 268.448C346.697 355.641 291.345 373.357 291.345 373.357C279.23 399.464 213.336 464.082 190.258 462.775C177.16 462.034 172.648 448.858 172.768 433.854C172.888 418.969 176.865 401.777 176.865 401.777C96.7184 400.366 42.8798 350.658 25.4003 306.104C10.8337 313.85 -21.6859 332.265 -33.5755 308.701C-42.4063 291.2 -33.4972 247.456 -15.3214 225.059C-18.6404 187.617 4.84361 134.51 18.7309 112.751C18.7309 112.751 -12.1509 30.7925 7.82397 25.3849C28.9334 19.6707 57.3698 46.2865 64.4715 54.4695ZM206.214 95.9943C210.348 98.4582 209.013 108.363 203.232 118.065C197.45 127.768 189.402 133.672 185.274 131.207C181.146 128.742 182.475 118.838 188.257 109.136C194.039 99.4335 202.08 93.5251 206.214 95.9943ZM271.916 133.497C276.051 135.966 274.715 145.866 268.935 155.573C263.154 165.281 255.105 171.18 250.977 168.715C246.849 166.25 248.178 156.346 253.959 146.638C259.739 136.931 267.783 131.033 271.916 133.497Z" stroke="#333333" stroke-width="24" stroke-linecap="round" stroke-linejoin="round"/>
</g>
<defs>
<clipPath id="clip0_21_2">
<rect width="400" height="400" rx="56" fill="white"/>
</clipPath>
</defs>
</svg>
