<svg width="1200" height="1200" viewBox="0 0 1200 1200" fill="none" xmlns="http://www.w3.org/2000/svg">
<path d="M720.189 513.845C733.537 594.175 795.65 661.138 878.151 655C954.522 649.317 999.895 593.62 1014.28 513.844C1038.52 379.326 958.343 247.223 841.513 265.276C734.762 281.771 708.846 445.584 720.189 513.845Z" fill="white"/>
<path d="M908.905 532.303C908.905 532.303 889.547 542.727 878.151 539.499C823.692 524.07 854.789 336.8 887.189 364M841.513 265.276C734.762 281.771 708.846 445.584 720.189 513.845C733.537 594.175 795.65 661.138 878.151 655C954.522 649.317 999.895 593.62 1014.28 513.844C1038.52 379.326 958.343 247.223 841.513 265.276Z" stroke="#1E1E1E" stroke-width="30" stroke-linecap="round" stroke-linejoin="round"/>
<path d="M979.725 957.555C1022.91 980.86 1073.4 941.674 1088.74 895.062C1101.8 855.407 1071.13 832.314 1058.49 792.523C1033.67 714.392 1085.28 592.972 986.851 595.205C944.412 596.167 917.925 608.166 901.524 621.505C859.608 583.591 826.263 610.503 809.59 627.494C714.169 724.735 734.001 1016.85 945.784 921.104C951.927 936.145 963.468 948.782 979.725 957.555Z" fill="white"/>
<path d="M875.803 659.038C875.803 659.038 879.885 639.105 901.524 621.505M901.524 621.505C859.608 583.591 826.263 610.503 809.59 627.494C714.169 724.735 734.001 1016.85 945.784 921.104M901.524 621.505C917.925 608.166 944.412 596.167 986.851 595.205C1085.28 592.972 1033.67 714.392 1058.49 792.523C1071.13 832.314 1101.8 855.407 1088.74 895.062C1073.4 941.674 1022.91 980.86 979.725 957.555C963.468 948.782 951.927 936.145 945.784 921.104M945.784 921.104C940.483 908.122 939.203 893.351 942.383 877.728" stroke="#1E1E1E" stroke-width="30" stroke-linecap="round" stroke-linejoin="round"/>
<path d="M753.599 648.346C837.526 543.302 805.187 184 588.468 238.988C473.859 268.068 386.075 492.86 428.188 589.493C453.784 648.227 488.181 680.672 543.188 706.5C620.356 742.733 703.815 710.656 753.599 648.346Z" fill="white"/>
<path d="M661.689 385C655.142 378.757 645.927 376.405 637.189 378.746C594.356 390.22 550.689 607 630.689 594.5C642.164 592.707 656.688 589.491 656.688 589.491M753.599 648.346C703.815 710.656 620.356 742.733 543.188 706.5C488.181 680.672 453.784 648.227 428.188 589.493C386.075 492.86 473.859 268.068 588.468 238.988C805.187 184 837.526 543.302 753.599 648.346Z" stroke="#1E1E1E" stroke-width="30" stroke-linecap="round" stroke-linejoin="round"/>
<path d="M667.38 956.567C696.165 991.467 750.73 957.777 777.796 921.528C807.171 882.188 769.665 844.949 772.344 795.925C775.486 738.43 839.334 711.175 797.228 650.596C782.619 629.577 765.137 620.143 739.548 619.461C709.09 618.65 687.505 641.697 676.024 658.152C676.024 658.152 661.686 588.817 597.746 607.586C483.205 641.209 465.749 915.49 585.098 913.002C614.597 912.387 657.911 892.843 657.911 892.843C654.025 916.784 651.372 937.158 667.38 956.567Z" fill="white"/>
<path d="M668.423 850.163C668.423 850.163 661.638 869.881 657.911 892.843M666.451 674.255C666.451 674.255 669.71 667.2 676.024 658.152M657.911 892.843C657.911 892.843 614.597 912.387 585.098 913.002C465.749 915.49 483.205 641.209 597.746 607.586C661.686 588.817 676.024 658.152 676.024 658.152M657.911 892.843C654.025 916.784 651.372 937.158 667.38 956.567C696.165 991.467 750.73 957.777 777.796 921.528C807.171 882.188 769.665 844.949 772.344 795.925C775.486 738.43 839.334 711.175 797.228 650.596C782.619 629.577 765.137 620.143 739.548 619.461C709.09 618.65 687.505 641.697 676.024 658.152" stroke="#1E1E1E" stroke-width="30" stroke-linecap="round" stroke-linejoin="round"/>
<path d="M421.462 942.608C422.063 942.863 422.659 943.081 423.285 943.268C431.208 945.637 489.062 961.488 518.158 928.785C560.015 881.739 597.341 787.88 537.399 707.986C477.457 628.093 426.763 698.613 389.884 698.613C353.006 698.613 364.004 676.693 320.811 636.782C219.765 543.412 25.3361 823.558 121.811 920.006C155.511 953.697 237.245 950.857 259.513 899.776C260.656 896.482 261.443 894.817 261.055 895.894C260.579 897.218 260.064 898.511 259.513 899.776C255.271 911.998 251.385 932.664 274.017 946.662C274.059 946.688 274.074 946.697 274.116 946.723C275.442 947.517 314.724 970.548 363.759 940.922C390.051 925.038 390.017 912.148 395.388 891.865C397.412 878.471 402.606 868.944 401.397 872.33C398.632 880.069 396.825 886.436 395.388 891.865C392.854 908.631 395.287 931.457 421.462 942.608Z" fill="white"/>
<path d="M259.513 899.776C237.245 950.857 155.511 953.697 121.811 920.006C25.3361 823.558 219.765 543.412 320.811 636.782C364.004 676.693 353.006 698.613 389.884 698.613C426.763 698.613 477.457 628.093 537.399 707.986C597.341 787.88 560.015 881.739 518.158 928.785C489.062 961.488 431.208 945.637 423.285 943.268C422.659 943.081 422.063 942.863 421.462 942.608C395.287 931.457 392.854 908.631 395.388 891.865M259.513 899.776C260.656 896.482 261.443 894.817 261.055 895.894C260.579 897.218 260.064 898.511 259.513 899.776ZM259.513 899.776C255.271 911.998 251.385 932.664 274.017 946.662C274.059 946.688 274.074 946.697 274.116 946.723C275.442 947.517 314.724 970.548 363.759 940.922C390.051 925.038 390.017 912.148 395.388 891.865M395.388 891.865C397.412 878.471 402.606 868.944 401.397 872.33C398.632 880.069 396.825 886.436 395.388 891.865Z" stroke="#1E1E1E" stroke-width="30" stroke-linecap="round" stroke-linejoin="round"/>
<path d="M450.649 689.37C418.355 731.892 371.142 751.789 325.663 744.925C280.183 738.06 264.166 719.605 264.369 700.171C264.548 683.057 278.158 653.039 281.405 646.116C244.026 650.609 205.591 641.866 168.381 619.737C74.4139 563.855 133.655 295.738 222.604 232.209C311.554 168.681 361.611 303.176 361.611 303.176C377.666 263.465 406.758 219.542 455.674 227.433C510.223 236.231 564.325 269.652 558.506 324.557C550.512 399.982 481.637 470.767 466.108 543.51C448.638 625.344 485.301 643.744 450.649 689.37Z" fill="white"/>
<path d="M372.919 606.155C344.103 628.951 313.134 642.302 281.405 646.116M361.611 303.176C361.611 303.176 311.554 168.681 222.604 232.209C133.655 295.738 74.4139 563.855 168.381 619.737C205.591 641.866 244.026 650.609 281.405 646.116M361.611 303.176C349.248 333.756 344.616 361.838 344.616 361.838M361.611 303.176C377.666 263.465 406.758 219.542 455.674 227.433C510.223 236.231 564.325 269.652 558.506 324.557C550.512 399.982 481.637 470.767 466.108 543.51C448.638 625.344 485.301 643.744 450.649 689.37C418.355 731.892 371.142 751.789 325.663 744.925C280.183 738.06 264.166 719.605 264.369 700.171C264.548 683.057 278.158 653.039 281.405 646.116" stroke="#1E1E1E" stroke-width="30" stroke-linecap="round" stroke-linejoin="round"/>
</svg>
